# xmcd
#
# Track frame offsets:
# 150
# 23400
# 47830
# 69940
# 92292
# 116287
# 141517
# 167102
# 192395
# 215955
# 246325
# 270602
#
# Disc length: 3962 seconds
#
# Revision: 0
# Processed by: cddbd v1.4PL0 Copyright (c) Steve Scherf et al.
# Submitted via: Audion 3.0.2 (http://www.panic.com/audion/)
#
DISCID=aa0f780c
DTITLE=Various Artist - New Beat: A New Style of Music
DYEAR=1900
DGENRE=
TTITLE0=Gang Of V.D.P. - Body Heat
TTITLE1=Neon - Fade To Grey
TTITLE2=Taste of Sugar - Hmm, Hmm
TTITLE3=The Maxx - Cocaine
TTITLE4=Public Relations - New Beat Mind.aiff
TTITLE5=Amnesia - Ibiza
TTITLE6=Dirty Harry - D´Bop
TTITLE7=Code 61 - Drop The Deal
TTITLE8=FVPD - The Roof Is On Fire
TTITLE9=L. S. Beat - La Strada
TTITLE10=T.C. - Hello I Love You
TTITLE11=Neon - Baby Wants To Ride
EXTD=
EXTT0=
EXTT1=
EXTT2=
EXTT3=
EXTT4=
EXTT5=
EXTT6=
EXTT7=
EXTT8=
EXTT9=
EXTT10=
EXTT11=
PLAYORDER=
